<svg id="Layer_4" data-name="Layer 4" xmlns="http://www.w3.org/2000/svg" xmlns:xlink="http://www.w3.org/1999/xlink" viewBox="0 0 595.52 633.03">
  <defs>
    <style>
      .cls-1 {
        fill: url(#linear-gradient);
      }

      .cls-2 {
        fill: url(#linear-gradient-2);
      }

      .cls-3 {
        fill: url(#linear-gradient-3);
      }

      .cls-4 {
        fill: url(#linear-gradient-4);
      }

      .cls-5 {
        fill: url(#linear-gradient-5);
      }

      .cls-6 {
        fill: url(#linear-gradient-6);
      }

      .cls-7 {
        font-size: 100.52px;
      }

      .cls-7, .cls-8, .cls-9 {
        fill: #fff;
      }

      .cls-7, .cls-8 {
        font-family: Roboto-Black, Roboto;
      }

      .cls-8 {
        font-size: 84.23px;
      }

      .cls-9 {
        font-size: 34.31px;
        font-family: Roboto-Regular, Roboto;
        letter-spacing: 0.8em;
      }

      .cls-10 {
        letter-spacing: 0.79em;
      }

      .cls-11 {
        letter-spacing: 0.8em;
      }
    </style>
    <linearGradient id="linear-gradient" x1="200.73" y1="383.75" x2="796.25" y2="383.75" gradientUnits="userSpaceOnUse">
      <stop offset="0" stop-color="#e3a940"/>
      <stop offset="0.1" stop-color="#e8ae2e"/>
      <stop offset="0.2" stop-color="#ebb123"/>
      <stop offset="0.31" stop-color="#ecb21f"/>
      <stop offset="0.67" stop-color="#dba036"/>
      <stop offset="0.89" stop-color="#d2952c"/>
      <stop offset="1" stop-color="#c0822b"/>
    </linearGradient>
    <linearGradient id="linear-gradient-2" x1="237.19" y1="547.11" x2="748.55" y2="547.11" xlink:href="#linear-gradient"/>
    <linearGradient id="linear-gradient-3" x1="518.5" y1="430.89" x2="573.44" y2="430.89" xlink:href="#linear-gradient"/>
    <linearGradient id="linear-gradient-4" x1="572.86" y1="492.69" x2="627.8" y2="492.69" xlink:href="#linear-gradient"/>
    <linearGradient id="linear-gradient-5" x1="369.17" y1="484.97" x2="424.11" y2="484.97" xlink:href="#linear-gradient"/>
    <linearGradient id="linear-gradient-6" x1="424.11" y1="388.02" x2="522.31" y2="388.02" xlink:href="#linear-gradient"/>
  </defs>
  <title>NEWJERUSALEM SVG</title>
  <path class="cls-1" d="M709,241.17a297.87,297.87,0,0,0-471.86,353.6c1.8-1,3.71-2.22,5.76-3.55,1.91-1.18,3.86-2.33,5.59-3.31l-2-3.43a7,7,0,0,1,2.56-9.56l17.23-10a7,7,0,0,1,9.57,2.56l7,12.1.79.19c2.39.49,5.09,1,7.65,1.35a242.68,242.68,0,0,1-37.21-129.44c0-134.74,109.63-244.34,244.36-244.34S742.84,317,742.84,451.73a242.83,242.83,0,0,1-29.3,116c1.42,1.38,3.42,3.58,5.73,6.31l3.73-6.46a7,7,0,0,1,9.56-2.56l17.23,10a7,7,0,0,1,2.56,9.56l-9.94,17.23a6.74,6.74,0,0,1-1.07,1.4l1.1,1.67c2.33,3.55,4.32,6.42,6.11,8.76A298,298,0,0,0,709,241.17ZM213.18,459.91V440a7,7,0,0,1,7-7h19.9a7,7,0,0,1,7,7v19.9a7,7,0,0,1-7,7h-19.9A7,7,0,0,1,213.18,459.91Zm45.07,65a7,7,0,0,1-5,8.57l-19.22,5.15a7,7,0,0,1-8.57-5l-5.15-19.22a7,7,0,0,1,5-8.57l19.22-5.15a7,7,0,0,1,8.57,5Zm0-149.86-5.15,19.22a7,7,0,0,1-8.57,5L225.31,394a7,7,0,0,1-5-8.58l5.15-19.22a7,7,0,0,1,8.57-5l19.22,5.15A7,7,0,0,1,258.25,375Zm27.61-59.88-9.94,17.23a7,7,0,0,1-9.57,2.57l-17.23-10a7,7,0,0,1-2.56-9.57l10-17.23a7,7,0,0,1,9.56-2.56l17.23,9.95A7,7,0,0,1,285.86,315.15ZM328,264.46,314,278.53a7,7,0,0,1-9.9,0L290,264.46a7,7,0,0,1,0-9.9l14.06-14.06a7,7,0,0,1,9.9,0L328,254.56A7,7,0,0,1,328,264.46Zm53.85-38-17.23,9.94a7,7,0,0,1-9.56-2.56l-10-17.23A7,7,0,0,1,347.7,207l17.23-10a7,7,0,0,1,9.57,2.56l9.94,17.23A7,7,0,0,1,381.88,226.42Zm61.87-22.82-19.22,5.15a7,7,0,0,1-8.58-5l-5.15-19.22a7,7,0,0,1,5-8.57L435,170.86a7,7,0,0,1,8.58,5L448.7,195A7,7,0,0,1,443.75,203.6Zm72.66-13a7,7,0,0,1-7,7h-19.9a7,7,0,0,1-7-7v-19.9a7,7,0,0,1,7-7h19.9a7,7,0,0,1,7,7Zm71.7-6L583,203.8a7,7,0,0,1-8.57,5l-19.22-5.15a7,7,0,0,1-5-8.57l5.15-19.22a7,7,0,0,1,8.57-5L583.16,176A7,7,0,0,1,588.11,184.58Zm65.66,32-10,17.23a7,7,0,0,1-9.56,2.56L617,226.42a7,7,0,0,1-2.56-9.57l10-17.23a7,7,0,0,1,9.56-2.56l17.23,10A7,7,0,0,1,653.77,216.57Zm55.15,47.89-14.07,14.07a7,7,0,0,1-9.9,0l-14.07-14.07a7,7,0,0,1,0-9.9L685,240.5a7,7,0,0,1,9.9,0l14.07,14.06A7,7,0,0,1,708.92,264.46ZM723,332.38l-10-17.23a7,7,0,0,1,2.56-9.56l17.23-9.95a7,7,0,0,1,9.57,2.56l9.94,17.23a7,7,0,0,1-2.56,9.57l-17.23,10A7,7,0,0,1,723,332.38ZM740.66,375a7,7,0,0,1,5-8.58l19.22-5.15a7,7,0,0,1,8.57,5l5.15,19.22a7,7,0,0,1-5,8.58l-19.22,5.15a7,7,0,0,1-8.57-5Zm37.89,139.41-5.15,19.22a7,7,0,0,1-8.57,5l-19.22-5.15a7,7,0,0,1-5-8.57l5.15-19.22a7,7,0,0,1,8.57-5l19.22,5.15A7,7,0,0,1,778.55,514.44Zm.18-47.53H758.84a7,7,0,0,1-7-7V440a7,7,0,0,1,7-7h19.89a7,7,0,0,1,7,7v19.9A7,7,0,0,1,778.73,466.91Z" transform="translate(-200.73 -153.97)"/>
  <path class="cls-2" d="M748.55,613.54Q741.77,624,734,634c-7.66-10.38-16.42-21.12-20.5-25.08a14.46,14.46,0,0,0-1.48-1.3c-1.4-.92-6-2.65-10.29-3.85s-8.33-2.39-9.07-2.8a2.06,2.06,0,0,1-.49-.45,151.44,151.44,0,0,1-10-13.35c-5-7.18-10.3,10.2-11.83,9S665.6,594,662.65,594c-10.28,0-26.52-9.14-33.15-18.58-.37-.51-1-1.25-1.7-2.18-2.3-2.83-6.11-7.28-9.65-11.1-4.66-5.06-3.67,16.88-5.15,14.76s-4.25-5.32-6.11-7.31-5.47-7.84-7.76-13c-3.22-7-4.37-9-8.69-12.65a3.73,3.73,0,0,1-.89-.74s0,0,0,0c-.93-.78-2-1.64-3.27-2.63-4.75-3.59-7.6,13.65-12.25,10.59l-.55-.39-.24-.17a109.19,109.19,0,0,1-12.29-9.8c-.83-.85-1.94-1.89-3.19-3-2.4-2.22-5.33-4.78-7.81-6.78-.17-.14-.33-.28-.5-.4-3.83-3.06-7.51-6.77-8.24-8.25a9.48,9.48,0,0,0-4.75-3.85,20.84,20.84,0,0,1-7.09-5.29c-2.8-3-3.53-3.7-7-3.4-.78.07-1.73.19-2.85.33-.07,0-.12,0-.18,0-6,.75-6.43.59-11.76-4a25.81,25.81,0,0,0-4.71-3.42,1.6,1.6,0,0,0-.4-.19c-2.48-1.24-4.71-1.25-7.84-.29-.71.23-1.46.49-2.31.82a2.19,2.19,0,0,1-.41.16c-2.7,1.06-8.23,4.7-13.35,8.54-4.58,3.43-8.87,7-10.55,9.1l0,0a35.2,35.2,0,0,0-4.65,8.37c-.91,2.33-4.6,4.12-9.08,5.63-3.34,1.16-7.14,2.17-10.55,3.13-4.22,1.2-7.88,2.38-9.46,3.75-4.51,4-6.08,6.39-10.07,15.49-.34.79-.71,1.67-1.11,2.59-4.74,11.15-18.38-5.61-26,1.16a50.44,50.44,0,0,0-4.57,5.28c-2.2,2.82-4.72,6.41-7.36,10.56-.56.86-1.14,1.74-1.69,2.65-6.09,10-8,13-13.26,17.59-1.94,1.7-4.33,3.59-7.55,6.17-6.72,5.33-14.47-13-17.17-11.39-4.52,2.89-19.46,14.57-29.1,22.6-1.82,1.52-3.45,2.92-4.78,4.08-4.82,4.13-6,4.66-11.52,4.78a67.13,67.13,0,0,1-8.69-.87c-2.56-.37-5.26-.87-7.65-1.39l-10.11-2.37L265,622c-3.11,1.22-6.27,2.44-8.48,3.29a290.71,290.71,0,0,1-19.33-30.57c1.8-1,3.71-2.22,5.76-3.55,1.91-1.18,3.86-2.33,5.59-3.31l8,13.8a7,7,0,0,0,9.56,2.56l17.23-9.95a7,7,0,0,0,2.56-9.56l-3-5.13.79.19c2.39.49,5.09,1,7.65,1.35a66.72,66.72,0,0,0,8.69.91c5.47-.15,6.7-.69,11.52-4.78C320,569.84,340,554,345.43,550.59c2.7-1.6,10.45,16.72,17.17,11.4,3.05-2.42,5.34-4.26,7.23-5.89,5.48-4.73,7.36-7.72,13.58-17.89,1.37-2.19,2.7-4.26,4-6.17,1.91-2.83,3.69-5.31,5.32-7.39a44.72,44.72,0,0,1,4.3-4.89,6.49,6.49,0,0,1,4.43-1.66,3.75,3.75,0,0,1,3-1.48,3.92,3.92,0,0,1,3.84,3.11c5.95,2.28,11.85,5.44,14.66-1.17l1.11-2.58c4-9.12,5.56-11.45,10.07-15.49,1.58-1.37,5.24-2.55,9.46-3.75,3.41-1,7.21-2,10.55-3.1,4.48-1.52,8.17-3.3,9.08-5.66a35.4,35.4,0,0,1,4.65-8.37l0,0c1.68-2.08,6-5.67,10.55-9.11,5.12-3.84,10.65-7.48,13.35-8.54l.41-.16c4.62-1.81,7.34-2.07,10.55-.33a27.47,27.47,0,0,1,4.71,3.43c5.25,4.52,5.7,4.75,11.45,4l.49-.06c1.12-.15,2.07-.27,2.85-.33,3.49-.29,4.22.37,7,3.39a20.75,20.75,0,0,0,7.09,5.3,9.21,9.21,0,0,1,2.61,1.47,8.18,8.18,0,0,1,2.14,2.4,8.89,8.89,0,0,0,.87,1.24,53.25,53.25,0,0,0,7.37,7c.17.12.33.27.5.38,1.59,1.3,3.4,2.84,5.12,4.37,2.32,2.06,4.5,4.09,5.88,5.48a110.39,110.39,0,0,0,12,9.58,5.75,5.75,0,0,0,.54.4c.18.14.37.26.55.38,4.65,3.06,7.5-14.17,12.25-10.58a63.9,63.9,0,0,1,7,6,21.13,21.13,0,0,1,3.17,4.46c.81,1.46,1.66,3.26,2.73,5.61,2.29,5.17,5.8,11,7.76,13a3.56,3.56,0,0,1,.41.46c1.49,1.61,3.41,3.87,4.81,5.67.34.42.63.81.89,1.18,1.48,2.12.49-19.82,5.15-14.76,3.54,3.81,7.35,8.26,9.65,11.11.75.91,1.33,1.66,1.7,2.18,6.63,9.41,22.87,18.58,33.15,18.58a14.47,14.47,0,0,1,7.78,2.14c1.53,1.18,6.85-16.2,11.83-9s9.72,13.41,10.44,13.81,4.82,1.57,9.07,2.78,8.89,2.92,10.29,3.86a12.75,12.75,0,0,1,1.48,1.28c1.42,1.38,3.42,3.58,5.73,6.31L713,584.76a7,7,0,0,0,2.56,9.56l17.23,9.95a7,7,0,0,0,8.5-1.16l1.1,1.67C744.77,608.33,746.76,611.2,748.55,613.54Z" transform="translate(-200.73 -153.97)"/>
  <path class="cls-3" d="M569.52,368h-7.87V356.18a3.9,3.9,0,0,0-3.92-3.92H534.19a3.92,3.92,0,0,0-3.92,3.92V368h-7.84a.25.25,0,0,0-.12,0,3.89,3.89,0,0,0-3.81,3.9v34.87l.47,62.18.49-.06c1.12-.15,2.07-.27,2.85-.33,3.49-.29,4.22.37,7,3.39a20.75,20.75,0,0,0,7.09,5.3,9.21,9.21,0,0,1,2.61,1.47,8.18,8.18,0,0,1,2.14,2.4,8.89,8.89,0,0,0,.87,1.24,53.25,53.25,0,0,0,7.37,7c.17.12.33.27.5.38V482.5a3.91,3.91,0,1,1,7.82,0v7.84a3.88,3.88,0,0,1-2.7,3.72c2.32,2.06,4.5,4.09,5.88,5.48a110.39,110.39,0,0,0,12,9.58,5.75,5.75,0,0,0,.54.4V371.87A3.92,3.92,0,0,0,569.52,368ZM542,466.81a3.92,3.92,0,0,1-7.85,0v-7.87a3.92,3.92,0,0,1,7.85,0Zm0-23.56a3.93,3.93,0,1,1-7.85,0v-7.84a3.92,3.92,0,1,1,7.85,0Zm0-23.53a3.92,3.92,0,0,1-7.85,0v-7.85a3.92,3.92,0,0,1,7.85,0Zm0-23.54a3.92,3.92,0,0,1-7.85,0v-7.84a3.92,3.92,0,1,1,7.85,0Zm15.69,70.63a3.91,3.91,0,1,1-7.82,0v-7.87a3.91,3.91,0,1,1,7.82,0Zm0-23.56a3.91,3.91,0,1,1-7.82,0v-7.84a3.91,3.91,0,1,1,7.82,0Zm0-23.53a3.91,3.91,0,1,1-7.82,0v-7.85a3.91,3.91,0,1,1,7.82,0Zm0-23.54a3.91,3.91,0,1,1-7.82,0v-7.84a3.91,3.91,0,1,1,7.82,0ZM539,478.69a8.18,8.18,0,0,1,2.14,2.4,8.89,8.89,0,0,0,.87,1.24A3.91,3.91,0,0,0,539,478.69Z" transform="translate(-200.73 -153.97)"/>
  <path class="cls-4" d="M623.88,465.23H616V453.45a3.93,3.93,0,0,0-3.93-3.92H588.55a3.93,3.93,0,0,0-3.92,3.92v11.78h-7.84a3.94,3.94,0,0,0-3.93,3.92V504l0,5.11a5.75,5.75,0,0,0,.54.4c.18.14.37.26.55.38,4.65,3.06,7.5-14.17,12.25-10.58a63.9,63.9,0,0,1,7,6,21.13,21.13,0,0,1,3.17,4.46c.81,1.46,1.66,3.26,2.73,5.61,2.29,5.17,5.8,11,7.76,13a3.56,3.56,0,0,1,.41.46c1.49,1.61,3.41,3.87,4.81,5.67.34.42.63.81.89,1.18,1.48,2.12.49-19.82,5.15-14.76,3.54,3.81,7.35,8.26,9.65,11.11V469.15A3.91,3.91,0,0,0,623.88,465.23ZM596.4,493.46a3.93,3.93,0,0,1-7.85,0v-7.84a3.93,3.93,0,1,1,7.85,0ZM612.11,517a3.92,3.92,0,0,1-7.84,0v-7.85a3.92,3.92,0,0,1,7.84,0Zm0-23.54a3.92,3.92,0,1,1-7.84,0v-7.84a3.92,3.92,0,1,1,7.84,0Zm-3.92,35.3a4.26,4.26,0,0,0-.89.1c1.49,1.61,3.41,3.87,4.81,5.67v-1.84A3.94,3.94,0,0,0,608.19,528.76Zm-15-23.45a21.13,21.13,0,0,1,3.17,4.46v-.62A3.89,3.89,0,0,0,593.23,505.31Z" transform="translate(-200.73 -153.97)"/>
  <path class="cls-5" d="M420.19,429.53h-7.85V417.76a3.91,3.91,0,0,0-3.92-3.92H384.87a3.93,3.93,0,0,0-3.92,3.92v11.77h-7.84a3.94,3.94,0,0,0-3.94,3.92v34.88l.66,87.77c5.48-4.73,7.36-7.72,13.58-17.89,1.37-2.19,2.7-4.26,4-6.17a3.88,3.88,0,0,1-2.54-3.65v-7.84a3.93,3.93,0,1,1,7.86,0v4.1a44.72,44.72,0,0,1,4.3-4.89,6.49,6.49,0,0,1,4.43-1.66,3.75,3.75,0,0,1,3-1.48,3.92,3.92,0,0,1,3.84,3.11c5.95,2.28,11.85,5.44,14.66-1.17l1.11-2.58V433.45A3.94,3.94,0,0,0,420.19,429.53Zm-27.46,75.3a3.93,3.93,0,1,1-7.86,0V497a3.93,3.93,0,0,1,7.86,0Zm0-23.52a3.93,3.93,0,0,1-7.86,0v-7.86a3.93,3.93,0,0,1,7.86,0Zm0-23.55a3.93,3.93,0,0,1-7.86,0v-7.84a3.93,3.93,0,1,1,7.86,0Zm15.69,47.07a3.92,3.92,0,1,1-7.84,0V497a3.92,3.92,0,1,1,7.84,0Zm0-23.52a3.92,3.92,0,0,1-7.84,0v-7.86a3.92,3.92,0,1,1,7.84,0Zm0-23.55a3.92,3.92,0,0,1-7.84,0v-7.84a3.92,3.92,0,1,1,7.84,0Z" transform="translate(-200.73 -153.97)"/>
  <path class="cls-6" d="M506,355.29V303.2H487.35V277.92h-8.18V260.06H467.28v17.86h-8.2V303.2H440.49v52.09H424.11V516c4-9.12,5.56-11.45,10.07-15.49,1.58-1.37,5.24-2.55,9.46-3.75V372.65h10.55v121c4.48-1.52,8.17-3.3,9.08-5.66a35.4,35.4,0,0,1,4.65-8.37l0,0V372.65H478.5v97.83c5.12-3.84,10.65-7.48,13.35-8.54l.41-.16V372.65h10.55v88.8a27.47,27.47,0,0,1,4.71,3.43c5.25,4.52,5.7,4.75,11.45,4l.49-.06c1.12-.15,2.07-.27,2.85-.33V355.29Zm-36.2-14H454.89V317.18h14.87Zm21.8,0H476.69V317.18h14.87Z" transform="translate(-200.73 -153.97)"/>
  <text class="cls-7" transform="translate(190.67 505.2)">NEW</text>
  <text class="cls-8" transform="translate(56.71 580.67)">JERUSALEM</text>
  <text class="cls-9" transform="translate(120.15 623.73)">PI<tspan class="cls-10" x="85.88" y="0">C</tspan><tspan class="cls-11" x="135.18" y="0">TURES</tspan></text>
</svg>
