<svg id="Layer_4" data-name="Layer 4" xmlns="http://www.w3.org/2000/svg" xmlns:xlink="http://www.w3.org/1999/xlink" viewBox="0 0 595.52 633.03">
  <defs>
    <style>
      .cls-1 {
        fill: url(#linear-gradient);
      }

      .cls-2 {
        fill: url(#linear-gradient-2);
      }

      .cls-3 {
        fill: url(#linear-gradient-3);
      }

      .cls-4 {
        fill: url(#linear-gradient-4);
      }

      .cls-5 {
        fill: url(#linear-gradient-5);
      }

      .cls-6 {
        fill: url(#linear-gradient-6);
      }

      .cls-7 {
        font-size: 100.52px;
      }

      .cls-7, .cls-8, .cls-9 {
        fill: #231f20;
      }

      .cls-7, .cls-8 {
        font-family: Roboto-Black, Roboto;
      }

      .cls-8 {
        font-size: 84.23px;
      }

      .cls-9 {
        font-size: 34.31px;
        font-family: Roboto-Regular, Roboto;
        letter-spacing: 0.8em;
      }

      .cls-10 {
        letter-spacing: 0.79em;
      }

      .cls-11 {
        letter-spacing: 0.8em;
      }

      .cls-12 {
        fill: #fff;
      }
    </style>
    <linearGradient id="linear-gradient" x1="200.73" y1="383.75" x2="796.25" y2="383.75" gradientUnits="userSpaceOnUse">
      <stop offset="0" stop-color="#e3a940"/>
      <stop offset="0.1" stop-color="#e8ae2e"/>
      <stop offset="0.2" stop-color="#ebb123"/>
      <stop offset="0.31" stop-color="#ecb21f"/>
      <stop offset="0.67" stop-color="#dba036"/>
      <stop offset="0.89" stop-color="#d2952c"/>
      <stop offset="1" stop-color="#c0822b"/>
    </linearGradient>
    <linearGradient id="linear-gradient-2" x1="237.19" y1="547.12" x2="748.55" y2="547.12" xlink:href="#linear-gradient"/>
    <linearGradient id="linear-gradient-3" x1="518.5" y1="430.89" x2="573.44" y2="430.89" xlink:href="#linear-gradient"/>
    <linearGradient id="linear-gradient-4" x1="572.86" y1="492.7" x2="627.8" y2="492.7" xlink:href="#linear-gradient"/>
    <linearGradient id="linear-gradient-5" x1="369.17" y1="484.97" x2="424.11" y2="484.97" xlink:href="#linear-gradient"/>
    <linearGradient id="linear-gradient-6" x1="424.11" y1="388.02" x2="522.31" y2="388.02" xlink:href="#linear-gradient"/>
  </defs>
  <title>NEWJERUSALEM</title>
  <g>
    <path class="cls-1" d="M709.05,241.17a297.87,297.87,0,0,0-471.86,353.6c1.79-1,3.71-2.22,5.75-3.55,4.74-2.92,9.73-5.7,11-6.1s6.27-2.39,11-4.26l8.58-3.44,10.11,2.4c2.39.49,5.09,1,7.65,1.35a242.66,242.66,0,0,1-37.22-129.44c0-134.73,109.63-244.34,244.36-244.34S742.84,317,742.84,451.73a242.84,242.84,0,0,1-29.3,116c5.74,5.57,20.76,24.59,28.9,37.1,2.32,3.55,4.32,6.43,6.11,8.76a298,298,0,0,0-39.5-372.36Z" transform="translate(-200.73 -153.97)"/>
    <path class="cls-2" d="M748.55,613.54Q741.76,624,734,634c-7.65-10.39-16.42-21.13-20.5-25.09a13.92,13.92,0,0,0-1.48-1.29c-1.4-.92-6-2.65-10.29-3.85s-8.33-2.39-9.07-2.8a1.84,1.84,0,0,1-.49-.45,150.11,150.11,0,0,1-10-13.36c-5-7.18-10.31,10.2-11.84,9S665.6,594,662.65,594c-10.28,0-26.53-9.15-33.15-18.58-.37-.51-1-1.25-1.7-2.18-2.3-2.84-6.11-7.28-9.65-11.1-4.66-5.07-3.67,16.88-5.15,14.75s-4.25-5.32-6.11-7.31-5.48-7.84-7.76-13c-3.22-7-4.37-9-8.7-12.66a3.66,3.66,0,0,1-.88-.74s0,0,0,0c-.94-.78-2-1.64-3.27-2.63-4.75-3.59-7.6,13.65-12.25,10.58l-.55-.38-.24-.17a108.63,108.63,0,0,1-12.29-9.81c-.83-.84-1.94-1.89-3.19-3-2.4-2.22-5.33-4.78-7.81-6.78-.17-.13-.33-.28-.5-.4-3.83-3.06-7.51-6.77-8.24-8.25a9.49,9.49,0,0,0-4.75-3.85,20.83,20.83,0,0,1-7.09-5.29c-2.8-3-3.54-3.7-7-3.39-.78.07-1.73.18-2.85.33l-.18,0c-6,.75-6.43.59-11.76-4a25.63,25.63,0,0,0-4.71-3.42,1.34,1.34,0,0,0-.4-.18c-2.48-1.24-4.71-1.25-7.84-.29-.71.22-1.46.49-2.31.82a2.94,2.94,0,0,1-.41.16c-2.71,1.06-8.24,4.7-13.36,8.54-4.58,3.43-8.87,7-10.54,9.11l0,0a34.89,34.89,0,0,0-4.66,8.37c-.91,2.34-4.59,4.12-9.08,5.64-3.34,1.16-7.14,2.16-10.54,3.13-4.22,1.2-7.88,2.38-9.46,3.75-4.51,4-6.08,6.39-10.07,15.49L423,559.76c-4.74,11.15-18.38-5.61-26,1.16a50.78,50.78,0,0,0-4.57,5.28c-2.2,2.82-4.72,6.41-7.36,10.56-.55.86-1.13,1.74-1.69,2.65-6.08,10-8,13-13.26,17.59-1.94,1.7-4.33,3.59-7.55,6.16-6.72,5.33-14.46-13-17.17-11.39-4.51,2.89-19.45,14.57-29.1,22.61-1.82,1.52-3.44,2.92-4.78,4.08-4.82,4.13-6,4.66-11.52,4.78a67.43,67.43,0,0,1-8.68-.87c-2.56-.37-5.27-.87-7.65-1.39l-10.11-2.38L265,622.05c-3.11,1.21-6.27,2.44-8.49,3.29a290,290,0,0,1-19.32-30.57c1.79-1,3.71-2.22,5.75-3.55,4.74-2.92,9.73-5.7,11-6.1s6.27-2.39,11-4.26l8.58-3.44,10.11,2.4c2.39.49,5.09,1,7.65,1.35a66.41,66.41,0,0,0,8.68.91c5.48-.15,6.7-.69,11.52-4.78C320,569.84,340,554,345.43,550.59c2.71-1.6,10.45,16.72,17.17,11.4,3-2.42,5.34-4.26,7.23-5.89,5.48-4.74,7.36-7.72,13.58-17.9,1.37-2.19,2.71-4.26,4-6.16,1.91-2.84,3.7-5.32,5.32-7.39a44.77,44.77,0,0,1,4.3-4.9,6.53,6.53,0,0,1,4.43-1.66,3.78,3.78,0,0,1,3-1.48,3.92,3.92,0,0,1,3.84,3.11c6,2.28,11.85,5.44,14.66-1.17l1.11-2.57c4-9.12,5.56-11.46,10.07-15.49,1.58-1.37,5.24-2.55,9.46-3.75,3.4-1,7.21-2,10.54-3.1,4.49-1.52,8.17-3.3,9.08-5.66a35.15,35.15,0,0,1,4.66-8.37l0,0c1.68-2.07,6-5.66,10.54-9.11,5.12-3.84,10.65-7.48,13.36-8.54l.41-.16c4.62-1.81,7.34-2.07,10.54-.33a27.11,27.11,0,0,1,4.71,3.43c5.25,4.51,5.7,4.75,11.46,4l.49-.07c1.12-.15,2.07-.26,2.85-.33,3.48-.29,4.22.37,7,3.39a20.71,20.71,0,0,0,7.09,5.31,9.22,9.22,0,0,1,2.61,1.46,8.26,8.26,0,0,1,2.14,2.4,8.91,8.91,0,0,0,.87,1.24,53.74,53.74,0,0,0,7.36,7c.17.12.33.26.5.38,1.6,1.29,3.4,2.84,5.12,4.37,2.32,2.06,4.5,4.09,5.89,5.48a110.38,110.38,0,0,0,12,9.58,6.21,6.21,0,0,0,.54.4c.18.15.37.26.55.38,4.65,3.06,7.5-14.17,12.25-10.58a65.67,65.67,0,0,1,7,6,21.35,21.35,0,0,1,3.17,4.46c.81,1.46,1.66,3.26,2.73,5.61,2.28,5.17,5.79,11,7.76,13a3.42,3.42,0,0,1,.41.46c1.49,1.61,3.4,3.87,4.8,5.66.34.42.63.82.9,1.19,1.48,2.11.49-19.82,5.15-14.77,3.54,3.81,7.35,8.26,9.65,11.11.75.91,1.33,1.66,1.7,2.18,6.63,9.41,22.87,18.58,33.15,18.58a14.48,14.48,0,0,1,7.77,2.14c1.53,1.19,6.85-16.19,11.84-9s9.71,13.41,10.44,13.8,4.82,1.57,9.07,2.78,8.9,2.92,10.29,3.85a13.51,13.51,0,0,1,1.48,1.28c5.74,5.57,20.76,24.59,28.9,37.1C744.77,608.33,746.76,611.2,748.55,613.54Z" transform="translate(-200.73 -153.97)"/>
    <g>
      <path class="cls-3" d="M569.52,367.95h-7.87V356.18a3.9,3.9,0,0,0-3.92-3.92H534.19a3.92,3.92,0,0,0-3.92,3.92v11.77h-7.84a.2.2,0,0,0-.12,0,3.88,3.88,0,0,0-3.81,3.89v34.87l.48,62.19.49-.07c1.12-.15,2.07-.26,2.85-.33,3.48-.29,4.22.37,7,3.39a20.71,20.71,0,0,0,7.09,5.31,9.22,9.22,0,0,1,2.61,1.46,8.26,8.26,0,0,1,2.14,2.4,8.91,8.91,0,0,0,.87,1.24,53.74,53.74,0,0,0,7.36,7c.17.12.33.26.5.38V482.5a3.91,3.91,0,1,1,7.83,0v7.84a3.89,3.89,0,0,1-2.71,3.72c2.32,2.06,4.5,4.09,5.89,5.48a110.38,110.38,0,0,0,12,9.58,6.21,6.21,0,0,0,.54.4V371.87A3.92,3.92,0,0,0,569.52,367.95ZM542,466.81a3.93,3.93,0,0,1-7.85,0v-7.87a3.93,3.93,0,0,1,7.85,0Zm0-23.56a3.93,3.93,0,1,1-7.85,0v-7.84a3.93,3.93,0,1,1,7.85,0Zm0-23.53a3.93,3.93,0,0,1-7.85,0v-7.85a3.93,3.93,0,0,1,7.85,0Zm0-23.54a3.93,3.93,0,0,1-7.85,0v-7.84a3.93,3.93,0,1,1,7.85,0Zm15.69,70.63a3.91,3.91,0,1,1-7.83,0v-7.87a3.91,3.91,0,1,1,7.83,0Zm0-23.56a3.91,3.91,0,1,1-7.83,0v-7.84a3.91,3.91,0,1,1,7.83,0Zm0-23.53a3.91,3.91,0,1,1-7.83,0v-7.85a3.91,3.91,0,1,1,7.83,0Zm0-23.54a3.91,3.91,0,1,1-7.83,0v-7.84a3.91,3.91,0,1,1,7.83,0ZM539,478.69a8.26,8.26,0,0,1,2.14,2.4,8.91,8.91,0,0,0,.87,1.24A3.92,3.92,0,0,0,539,478.69Z" transform="translate(-200.73 -153.97)"/>
      <path class="cls-4" d="M623.88,465.23H616V453.45a3.92,3.92,0,0,0-3.93-3.92H588.55a3.92,3.92,0,0,0-3.92,3.92v11.77h-7.84a3.89,3.89,0,0,0-3.35,1.89,3.84,3.84,0,0,0-.58,2V504l0,5.11a6.21,6.21,0,0,0,.54.4c.18.15.37.26.55.38,4.65,3.06,7.5-14.17,12.25-10.58a65.67,65.67,0,0,1,7,6,21.35,21.35,0,0,1,3.17,4.46c.81,1.46,1.66,3.26,2.73,5.61,2.28,5.17,5.79,11,7.76,13a3.42,3.42,0,0,1,.41.46c1.49,1.61,3.4,3.87,4.8,5.66.34.42.63.82.9,1.19,1.48,2.11.49-19.82,5.15-14.77,3.54,3.81,7.35,8.26,9.65,11.11V469.15A3.92,3.92,0,0,0,623.88,465.23ZM596.4,493.46a3.93,3.93,0,0,1-7.85,0v-7.84a3.93,3.93,0,1,1,7.85,0ZM612.11,517a3.92,3.92,0,1,1-7.84,0v-7.85a3.92,3.92,0,0,1,7.84,0Zm0-23.54a3.92,3.92,0,0,1-7.84,0v-7.84a3.92,3.92,0,1,1,7.84,0Zm-3.92,35.3a3.86,3.86,0,0,0-.88.11c1.49,1.61,3.4,3.87,4.8,5.66v-1.83A3.94,3.94,0,0,0,608.19,528.76Zm-15-23.45a21.35,21.35,0,0,1,3.17,4.46v-.62A3.9,3.9,0,0,0,593.23,505.31Z" transform="translate(-200.73 -153.97)"/>
      <path class="cls-5" d="M420.19,429.53h-7.85V417.76a3.92,3.92,0,0,0-3.92-3.92H384.87a3.93,3.93,0,0,0-3.92,3.92v11.77h-7.84a3.94,3.94,0,0,0-3.95,3.92v34.88l.66,87.78c5.48-4.74,7.36-7.72,13.58-17.9,1.37-2.19,2.71-4.26,4-6.16a3.89,3.89,0,0,1-2.53-3.66v-7.84a3.93,3.93,0,1,1,7.85,0v4.1a44.77,44.77,0,0,1,4.3-4.9,6.53,6.53,0,0,1,4.43-1.66,3.78,3.78,0,0,1,3-1.48,3.92,3.92,0,0,1,3.84,3.11c6,2.28,11.85,5.44,14.66-1.17l1.11-2.57V433.45A3.94,3.94,0,0,0,420.19,429.53Zm-27.46,75.3a3.93,3.93,0,1,1-7.85,0V497a3.93,3.93,0,0,1,7.85,0Zm0-23.52a3.93,3.93,0,0,1-7.85,0v-7.87a3.93,3.93,0,0,1,7.85,0Zm0-23.56a3.93,3.93,0,0,1-7.85,0v-7.84a3.93,3.93,0,1,1,7.85,0Zm15.69,47.08a3.92,3.92,0,1,1-7.84,0V497a3.92,3.92,0,0,1,7.84,0Zm0-23.52a3.92,3.92,0,0,1-7.84,0v-7.87a3.92,3.92,0,0,1,7.84,0Zm0-23.56a3.92,3.92,0,1,1-7.84,0v-7.84a3.92,3.92,0,1,1,7.84,0Z" transform="translate(-200.73 -153.97)"/>
      <path class="cls-6" d="M506,355.29V303.2H487.35V277.92h-8.18V260.06H467.28v17.86h-8.2V303.2h-18.6v52.09H424.11V516c4-9.12,5.56-11.46,10.07-15.49,1.58-1.37,5.24-2.55,9.46-3.75V372.65h10.54v121c4.49-1.52,8.17-3.3,9.08-5.66a35.15,35.15,0,0,1,4.66-8.37l0,0V372.65H478.5v97.83c5.12-3.84,10.65-7.48,13.36-8.54l.41-.16V372.65h10.54v88.81a27.11,27.11,0,0,1,4.71,3.43c5.25,4.51,5.7,4.75,11.46,4l.49-.07c1.12-.15,2.07-.26,2.85-.33V355.29Zm-36.2-14H454.89V317.18h14.87Zm21.8,0H476.69V317.18h14.87Z" transform="translate(-200.73 -153.97)"/>
    </g>
  </g>
  <text class="cls-7" transform="translate(190.67 505.21)">NEW</text>
  <text class="cls-8" transform="translate(56.71 580.67)">JERUSALEM</text>
  <text class="cls-9" transform="translate(120.15 623.74)">PI<tspan class="cls-10" x="85.88" y="0">C</tspan><tspan class="cls-11" x="135.18" y="0">TURES</tspan></text>
  <g>
    <rect class="cls-12" x="281.78" y="9.72" width="33.9" height="33.9" rx="7" ry="7"/>
    <rect class="cls-12" x="412.8" y="172.86" width="33.9" height="33.9" rx="7" ry="7" transform="translate(-235.21 -36.27) rotate(-15)"/>
    <rect class="cls-12" x="347.85" y="199.76" width="33.9" height="33.9" rx="7" ry="7" transform="translate(-260.21 57.46) rotate(-30)"/>
    <rect class="cls-12" x="292.07" y="242.57" width="33.9" height="33.9" rx="7" ry="7" transform="translate(-293.73 140.55) rotate(-45)"/>
    <rect class="cls-12" x="249.26" y="298.35" width="33.9" height="33.9" rx="7" ry="7" transform="translate(-340.68 234.23) rotate(-60)"/>
    <rect class="cls-12" x="222.36" y="363.3" width="33.9" height="33.9" rx="7" ry="7" transform="translate(-390.65 359.02) rotate(-75)"/>
    <rect class="cls-12" x="213.18" y="433.01" width="33.9" height="33.9" rx="7" ry="7" transform="translate(-420.56 526.12) rotate(-90)"/>
    <rect class="cls-12" x="222.36" y="502.72" width="33.9" height="33.9" rx="7" ry="7" transform="translate(-401.44 731.35) rotate(-105)"/>
    <rect class="cls-12" x="249.26" y="567.67" width="33.9" height="33.9" rx="7" ry="7" transform="translate(-307.71 953.51) rotate(-120)"/>
    <rect class="cls-12" x="715.75" y="567.67" width="33.9" height="33.9" rx="7" ry="7" transform="translate(1404.62 88.43) rotate(120)"/>
    <rect class="cls-12" x="742.66" y="502.72" width="33.9" height="33.9" rx="7" ry="7" transform="translate(1257.44 -233.53) rotate(105)"/>
    <rect class="cls-12" x="751.84" y="433.01" width="33.9" height="33.9" rx="7" ry="7" transform="translate(1018.01 -472.79) rotate(90)"/>
    <rect class="cls-12" x="742.66" y="363.3" width="33.9" height="33.9" rx="7" ry="7" transform="translate(729.57 -605.86) rotate(75)"/>
    <rect class="cls-12" x="715.75" y="298.35" width="33.9" height="33.9" rx="7" ry="7" transform="translate(438.67 -630.86) rotate(60)"/>
    <rect class="cls-12" x="672.95" y="242.57" width="33.9" height="33.9" rx="7" ry="7" transform="translate(184.84 -565.79) rotate(45)"/>
    <rect class="cls-12" x="617.17" y="199.76" width="33.9" height="33.9" rx="7" ry="7" transform="translate(-7.42 -441.99) rotate(30)"/>
    <rect class="cls-12" x="552.22" y="172.86" width="33.9" height="33.9" rx="7" ry="7" transform="translate(-132.21 -294.81) rotate(15)"/>
  </g>
</svg>
